# Noesis .obj export.
#
mtllib unused.mtl
g
v  -0.152252 -0.758755 -0.893579
v  -0.151010 0.622134 -0.905496
v  -0.152252 -0.744109 0.803480
v  -0.151010 0.636781 0.791563
v  -2.974229 0.360647 -0.434760
v  -2.972987 -0.524277 -0.427124
v  -2.974229 0.367297 0.335818
v  -2.972987 -0.517627 0.343455
v  0.394636 -0.702621 1.197322
v  0.674743 -0.395100 0.831804
v  0.704119 -0.392201 1.167566
v  0.365259 -0.705519 0.861559
v  -0.028127 -0.816010 1.235289
v  -0.057503 -0.818908 0.899526
v  -0.450889 -0.701983 1.271293
v  -0.480266 -0.704881 0.935531
v  -0.760373 -0.391096 1.295688
v  -0.789749 -0.393993 0.959925
v  -0.873652 0.033351 1.301936
v  -0.903028 0.030454 0.966173
v  -0.760373 0.457627 1.288364
v  -0.789749 0.454730 0.952600
v  -0.450889 0.768047 1.258607
v  -0.480266 0.765149 0.922844
v  -0.028127 0.881436 1.220640
v  -0.057503 0.878538 0.884877
v  0.394636 0.767408 1.184636
v  0.365259 0.764511 0.848873
v  0.704119 0.456522 1.160241
v  0.674743 0.453624 0.824479
v  0.817398 0.032074 1.153993
v  0.788021 0.029177 0.818231
v  0.704119 -0.392201 1.167566
v  0.674743 -0.395100 0.831804
v  -0.789749 0.454730 0.952600
v  -0.789749 -0.393993 0.959925
v  -0.903028 0.030454 0.966173
v  -0.480266 0.765149 0.922844
v  -0.480266 -0.704881 0.935531
v  -0.057503 0.878538 0.884877
v  0.365259 0.764511 0.848873
v  -0.057503 -0.818908 0.899526
v  0.365259 -0.705519 0.861559
v  0.674743 0.453624 0.824479
v  0.674743 -0.395100 0.831804
v  0.788021 0.029177 0.818231
v  0.364765 -0.720622 -0.888509
v  0.704613 -0.412729 -1.211169
v  0.674249 -0.409735 -0.864114
v  0.395130 -0.723618 -1.235563
v  -0.057997 -0.834649 -0.924514
v  -0.027633 -0.837645 -1.271568
v  -0.480760 -0.721261 -0.962481
v  -0.450395 -0.724256 -1.309535
v  -0.790243 -0.410841 -0.992237
v  -0.759879 -0.413836 -1.339291
v  -0.903522 0.013435 -1.005808
v  -0.873158 0.010441 -1.352864
v  -0.790243 0.437882 -0.999561
v  -0.759879 0.434888 -1.346615
v  -0.480760 0.748769 -0.975167
v  -0.450395 0.745775 -1.322221
v  -0.057997 0.862797 -0.939163
v  -0.027633 0.859802 -1.286217
v  0.364765 0.749407 -0.901196
v  0.395130 0.746413 -1.248250
v  0.674249 0.438989 -0.871439
v  0.704613 0.435993 -1.218494
v  0.787527 0.014712 -0.857867
v  0.817892 0.011717 -1.204921
v  0.674249 -0.409735 -0.864114
v  0.704613 -0.412729 -1.211169
v  0.674249 -0.409735 -0.864114
v  0.787527 0.014712 -0.857867
v  0.364765 -0.720622 -0.888509
v  0.674249 0.438989 -0.871439
v  -0.057997 -0.834649 -0.924514
v  0.364765 0.749407 -0.901196
v  -0.480760 -0.721261 -0.962481
v  -0.057997 0.862797 -0.939163
v  -0.790243 -0.410841 -0.992237
v  -0.480760 0.748769 -0.975167
v  -0.903522 0.013435 -1.005808
v  -0.790243 0.437882 -0.999561
v  -0.152252 -0.758755 -0.893579
v  -0.152252 -0.744109 0.803480
v  -0.740574 -0.825047 -0.947574
v  -0.740574 -0.809107 0.899564
v  -1.495654 -0.724670 0.879161
v  -1.495654 -0.740510 -0.956268
v  -0.739953 0.649632 0.886975
v  -0.151010 0.636781 0.791563
v  -2.087716 -0.653434 0.714185
v  -2.087716 -0.666736 -0.827115
v  -1.495787 0.572427 0.867967
v  -0.739953 0.633691 -0.960163
v  -0.151010 0.622134 -0.905496
v  -0.152252 -0.758755 -0.893579
v  -0.740574 -0.825047 -0.947574
v  -1.495654 -0.740510 -0.956268
v  -2.567880 -0.588075 0.555078
v  -2.567880 -0.598747 -0.681571
v  -2.972987 -0.524277 -0.427124
v  -2.972987 -0.517627 0.343455
v  -1.495787 0.556587 -0.967462
v  -2.087716 -0.666736 -0.827115
v  -2.088391 0.503786 0.704198
v  -2.088391 0.490484 -0.837102
v  -2.567880 -0.598747 -0.681571
v  -2.568931 0.439473 0.546210
v  -2.974229 0.367297 0.335818
v  -2.974229 0.360647 -0.434760
v  -2.568931 0.428801 -0.690439
v  -2.972987 -0.524277 -0.427124
v  -0.028127 0.881436 1.220640
v  -0.028127 0.033897 1.365175
v  0.394636 0.767408 1.184636
v  0.704119 0.456522 1.160241
v  -0.450889 0.768047 1.258607
v  0.817398 0.032074 1.153993
v  -0.760373 0.457627 1.288364
v  0.704119 -0.392201 1.167566
v  -0.873652 0.033351 1.301936
v  0.394636 -0.702621 1.197322
v  -0.760373 -0.391096 1.295688
v  -0.028127 -0.816010 1.235289
v  -0.450889 -0.701983 1.271293
v  -0.027633 0.859802 -1.286217
v  0.395130 0.746413 -1.248250
v  -0.027633 0.009894 -1.416103
v  0.704613 0.435993 -1.218494
v  -0.450395 0.745775 -1.322221
v  0.817892 0.011717 -1.204921
v  -0.759879 0.434888 -1.346615
v  0.704613 -0.412729 -1.211169
v  -0.873158 0.010441 -1.352864
v  0.395130 -0.723618 -1.235563
v  -0.759879 -0.413836 -1.339291
v  -0.027633 -0.837645 -1.271568
v  -0.450395 -0.724256 -1.309535

vt  0.703142 0.632793 0.000000
vt  0.731539 0.632648 0.000000
vt  0.702964 0.597895 0.000000
vt  0.731361 0.597749 0.000000
vt  0.731925 0.668929 0.000000
vt  0.731837 0.639534 0.000000
vt  0.706329 0.669006 0.000000
vt  0.706240 0.639612 0.000000
vt  0.780636 0.550718 0.000000
vt  0.796537 0.531591 0.000000
vt  0.780636 0.531666 0.000000
vt  0.796537 0.550640 0.000000
vt  0.780636 0.569763 0.000000
vt  0.796537 0.569698 0.000000
vt  0.780636 0.588807 0.000000
vt  0.796537 0.588761 0.000000
vt  0.780636 0.607847 0.000000
vt  0.796537 0.607831 0.000000
vt  0.780636 0.626886 0.000000
vt  0.796537 0.626900 0.000000
vt  0.780636 0.645933 0.000000
vt  0.796537 0.645963 0.000000
vt  0.780636 0.664976 0.000000
vt  0.796537 0.665030 0.000000
vt  0.780636 0.684010 0.000000
vt  0.796537 0.684100 0.000000
vt  0.780636 0.703046 0.000000
vt  0.796537 0.703168 0.000000
vt  0.780636 0.722095 0.000000
vt  0.796537 0.722219 0.000000
vt  0.780636 0.741146 0.000000
vt  0.796537 0.741265 0.000000
vt  0.780636 0.760199 0.000000
vt  0.796537 0.760311 0.000000
vt  0.461810 0.938272 0.000000
vt  0.461810 0.978607 0.000000
vt  0.467119 0.958439 0.000000
vt  0.447307 0.923509 0.000000
vt  0.447307 0.993370 0.000000
vt  0.427495 0.918105 0.000000
vt  0.407684 0.923509 0.000000
vt  0.427495 0.998774 0.000000
vt  0.407684 0.993370 0.000000
vt  0.393181 0.938272 0.000000
vt  0.393181 0.978607 0.000000
vt  0.387872 0.958439 0.000000
vt  0.780636 0.550718 0.000000
vt  0.796537 0.531591 0.000000
vt  0.780636 0.531666 0.000000
vt  0.796537 0.550640 0.000000
vt  0.780636 0.569763 0.000000
vt  0.796537 0.569698 0.000000
vt  0.780636 0.588807 0.000000
vt  0.796537 0.588761 0.000000
vt  0.780636 0.607847 0.000000
vt  0.796537 0.607831 0.000000
vt  0.780636 0.626886 0.000000
vt  0.796537 0.626900 0.000000
vt  0.780636 0.645933 0.000000
vt  0.796537 0.645963 0.000000
vt  0.780636 0.664976 0.000000
vt  0.796537 0.665030 0.000000
vt  0.780636 0.684010 0.000000
vt  0.796537 0.684100 0.000000
vt  0.780636 0.703046 0.000000
vt  0.796537 0.703168 0.000000
vt  0.780636 0.722095 0.000000
vt  0.796537 0.722219 0.000000
vt  0.780636 0.741146 0.000000
vt  0.796537 0.741265 0.000000
vt  0.780636 0.760199 0.000000
vt  0.796537 0.760311 0.000000
vt  0.461810 0.978607 0.000000
vt  0.467119 0.958439 0.000000
vt  0.447307 0.993370 0.000000
vt  0.461810 0.938272 0.000000
vt  0.427495 0.998774 0.000000
vt  0.447307 0.923509 0.000000
vt  0.407684 0.993370 0.000000
vt  0.427495 0.918105 0.000000
vt  0.393181 0.978607 0.000000
vt  0.407684 0.923509 0.000000
vt  0.387872 0.958439 0.000000
vt  0.393181 0.938272 0.000000
vt  0.877175 0.528295 0.000000
vt  0.877175 0.465884 0.000000
vt  0.842601 0.528295 0.000000
vt  0.842601 0.465884 0.000000
vt  0.805156 0.465884 0.000000
vt  0.805156 0.528295 0.000000
vt  0.842601 0.415780 0.000000
vt  0.877175 0.415780 0.000000
vt  0.768056 0.465885 0.000000
vt  0.768056 0.528295 0.000000
vt  0.805156 0.415780 0.000000
vt  0.842601 0.357476 0.000000
vt  0.877175 0.357476 0.000000
vt  0.877175 0.298192 0.000000
vt  0.842601 0.298192 0.000000
vt  0.805156 0.298192 0.000000
vt  0.737249 0.465884 0.000000
vt  0.737249 0.528295 0.000000
vt  0.710236 0.528295 0.000000
vt  0.710236 0.465885 0.000000
vt  0.805156 0.357476 0.000000
vt  0.768056 0.298192 0.000000
vt  0.768056 0.415780 0.000000
vt  0.768056 0.357476 0.000000
vt  0.737249 0.298192 0.000000
vt  0.737249 0.415780 0.000000
vt  0.710236 0.415780 0.000000
vt  0.710236 0.357476 0.000000
vt  0.737249 0.357476 0.000000
vt  0.710236 0.298192 0.000000
vt  0.329588 0.917001 0.000000
vt  0.329588 0.957336 0.000000
vt  0.349399 0.922405 0.000000
vt  0.363903 0.937168 0.000000
vt  0.309776 0.922405 0.000000
vt  0.369211 0.957336 0.000000
vt  0.295273 0.937168 0.000000
vt  0.363903 0.977503 0.000000
vt  0.289964 0.957336 0.000000
vt  0.349399 0.992266 0.000000
vt  0.295273 0.977503 0.000000
vt  0.329588 0.997670 0.000000
vt  0.309776 0.992266 0.000000
vt  0.329588 0.917001 0.000000
vt  0.309776 0.922405 0.000000
vt  0.329588 0.957336 0.000000
vt  0.295273 0.937168 0.000000
vt  0.349399 0.922405 0.000000
vt  0.289964 0.957336 0.000000
vt  0.363903 0.937168 0.000000
vt  0.295273 0.977503 0.000000
vt  0.369211 0.957336 0.000000
vt  0.309776 0.992266 0.000000
vt  0.363903 0.977503 0.000000
vt  0.329588 0.997670 0.000000
vt  0.349399 0.992266 0.000000

vn  1.000000 -0.000899 0.000008
vn  1.000000 -0.000899 0.000008
vn  1.000000 -0.000899 0.000008
vn  1.000000 -0.000899 0.000008
vn  -0.999999 -0.001404 0.000012
vn  -0.999999 -0.001404 0.000012
vn  -0.999999 -0.001404 0.000012
vn  -0.999999 -0.001404 0.000012
vn  0.572872 -0.818513 -0.043058
vn  0.704415 -0.707613 -0.055524
vn  0.704416 -0.707612 -0.055522
vn  0.419372 -0.907355 -0.028863
vn  0.088624 -0.996065 0.000841
vn  -0.088624 -0.995931 0.016348
vn  -0.419372 -0.906722 0.044516
vn  -0.572873 -0.817648 0.057177
vn  -0.814997 -0.574425 0.076262
vn  -0.903621 -0.420276 0.082684
vn  -0.992245 -0.088210 0.087573
vn  -0.992245 0.089708 0.086037
vn  -0.903621 0.421641 0.075420
vn  -0.814997 0.575656 0.066337
vn  -0.572873 0.818513 0.043057
vn  -0.419373 0.907355 0.028860
vn  -0.088624 0.996065 -0.000844
vn  0.088625 0.995931 -0.016350
vn  0.419373 0.906722 -0.044517
vn  0.572872 0.817648 -0.057178
vn  0.814997 0.574425 -0.076263
vn  0.903621 0.420276 -0.082687
vn  0.992245 0.088209 -0.087575
vn  0.992245 -0.089708 -0.086040
vn  0.962250 -0.259535 -0.081949
vn  0.962251 -0.259534 -0.081948
vn  -0.087157 -0.008597 -0.996158
vn  -0.087156 -0.008597 -0.996158
vn  -0.087160 -0.008597 -0.996157
vn  -0.087155 -0.008597 -0.996158
vn  -0.087156 -0.008597 -0.996158
vn  -0.087156 -0.008597 -0.996158
vn  -0.087156 -0.008597 -0.996158
vn  -0.087156 -0.008597 -0.996158
vn  -0.087155 -0.008597 -0.996158
vn  -0.087156 -0.008597 -0.996158
vn  -0.087157 -0.008597 -0.996157
vn  -0.087160 -0.008597 -0.996157
vn  0.572873 -0.817647 0.057179
vn  0.704416 -0.706549 0.067728
vn  0.704415 -0.706550 0.067726
vn  0.419373 -0.906722 0.044518
vn  0.088624 -0.995931 0.016350
vn  -0.088624 -0.996065 0.000842
vn  -0.419372 -0.907355 -0.028862
vn  -0.572873 -0.818512 -0.043060
vn  -0.814997 -0.575655 -0.066338
vn  -0.903621 -0.421641 -0.075420
vn  -0.992245 -0.089708 -0.086038
vn  -0.992245 0.088210 -0.087573
vn  -0.903621 0.420277 -0.082685
vn  -0.814997 0.574425 -0.076261
vn  -0.572873 0.817648 -0.057175
vn  -0.419373 0.906722 -0.044514
vn  -0.088624 0.995931 -0.016346
vn  0.088625 0.996065 -0.000839
vn  0.419372 0.907355 0.028865
vn  0.572872 0.818513 0.043060
vn  0.814997 0.575656 0.066338
vn  0.903621 0.421640 0.075420
vn  0.992245 0.089708 0.086040
vn  0.992245 -0.088209 0.087575
vn  0.962250 -0.258082 0.086416
vn  0.962250 -0.258084 0.086415
vn  -0.087161 0.008599 0.996157
vn  -0.087158 0.008598 0.996158
vn  -0.087157 0.008597 0.996158
vn  -0.087156 0.008596 0.996158
vn  -0.087156 0.008597 0.996158
vn  -0.087156 0.008597 0.996158
vn  -0.087156 0.008597 0.996158
vn  -0.087156 0.008597 0.996158
vn  -0.087154 0.008597 0.996158
vn  -0.087155 0.008597 0.996158
vn  -0.087155 0.008597 0.996158
vn  -0.087157 0.008599 0.996157
vn  0.111191 -0.993762 0.008576
vn  0.190192 -0.690589 0.697792
vn  -0.000083 -0.999963 0.008630
vn  0.047648 -0.700344 0.712214
vn  -0.156086 -0.694429 0.702429
vn  -0.118324 -0.992938 0.008569
vn  0.042094 0.455887 0.889041
vn  0.089746 0.896832 0.433171
vn  -0.284757 -0.683446 0.672172
vn  -0.132372 -0.991163 0.008554
vn  -0.205211 0.704506 0.679382
vn  0.007749 0.700760 -0.713354
vn  0.079599 0.700168 -0.709527
vn  0.092304 -0.008654 -0.995693
vn  0.051494 -0.008640 -0.998636
vn  -0.064716 -0.008620 -0.997866
vn  -0.334402 -0.765470 0.549755
vn  -0.156668 -0.987615 0.008523
vn  -0.175629 -0.984420 0.008496
vn  -0.476330 -0.420386 0.772260
vn  -0.174623 0.693555 -0.698920
vn  -0.239907 -0.008483 -0.970759
vn  -0.289488 0.695750 0.657365
vn  -0.271105 0.684695 -0.676531
vn  -0.374609 -0.008341 -0.927145
vn  -0.357755 0.773459 0.523232
vn  -0.430855 0.675653 0.598211
vn  -0.377735 0.847519 -0.372865
vn  -0.448291 0.528085 -0.721222
vn  -0.532732 -0.007949 -0.846247
vn  0.085891 0.167487 0.982126
vn  0.085977 0.008598 0.996260
vn  0.164606 0.145255 0.975605
vn  0.221599 0.087018 0.971247
vn  0.006166 0.147127 0.989098
vn  0.242329 0.008372 0.970158
vn  -0.052847 0.088976 0.994631
vn  0.221599 -0.070243 0.972605
vn  -0.074588 0.008606 0.997177
vn  0.164606 -0.128395 0.977967
vn  -0.052847 -0.071796 0.996018
vn  0.085891 -0.150512 0.984870
vn  0.006166 -0.130035 0.991490
vn  0.085891 0.150512 -0.984870
vn  0.164606 0.128395 -0.977967
vn  0.085977 -0.008598 -0.996260
vn  0.221599 0.070243 -0.972605
vn  0.006165 0.130034 -0.991490
vn  0.242329 -0.008373 -0.970158
vn  -0.052848 0.071797 -0.996018
vn  0.221599 -0.087018 -0.971248
vn  -0.074587 -0.008606 -0.997177
vn  0.164606 -0.145254 -0.975605
vn  -0.052848 -0.088976 -0.994631
vn  0.085891 -0.167487 -0.982126
vn  0.006165 -0.147126 -0.989099

g "mesh0"
usemtl 
f  1/1/1 2/2/2 3/3/3
f  3/3/3 2/2/2 4/4/4
f  5/5/5 6/6/6 7/7/7
f  7/7/7 6/6/6 8/8/8
f  9/9/9 10/10/10 11/11/11
f  12/12/12 10/10/10 9/9/9
f  13/13/13 12/12/12 9/9/9
f  14/14/14 12/12/12 13/13/13
f  15/15/15 14/14/14 13/13/13
f  16/16/16 14/14/14 15/15/15
f  17/17/17 16/16/16 15/15/15
f  18/18/18 16/16/16 17/17/17
f  19/19/19 18/18/18 17/17/17
f  20/20/20 18/18/18 19/19/19
f  21/21/21 20/20/20 19/19/19
f  22/22/22 20/20/20 21/21/21
f  23/23/23 22/22/22 21/21/21
f  24/24/24 22/22/22 23/23/23
f  25/25/25 24/24/24 23/23/23
f  26/26/26 24/24/24 25/25/25
f  27/27/27 26/26/26 25/25/25
f  28/28/28 26/26/26 27/27/27
f  29/29/29 28/28/28 27/27/27
f  30/30/30 28/28/28 29/29/29
f  31/31/31 30/30/30 29/29/29
f  32/32/32 30/30/30 31/31/31
f  33/33/33 32/32/32 31/31/31
f  34/34/34 32/32/32 33/33/33
f  35/35/35 36/36/36 37/37/37
f  38/38/38 36/36/36 35/35/35
f  38/38/38 39/39/39 36/36/36
f  40/40/40 39/39/39 38/38/38
f  41/41/41 39/39/39 40/40/40
f  42/42/42 39/39/39 41/41/41
f  42/42/42 41/41/41 43/43/43
f  43/43/43 41/41/41 44/44/44
f  43/43/43 44/44/44 45/45/45
f  45/45/45 44/44/44 46/46/46
f  47/47/47 48/48/48 49/49/49
f  50/50/50 48/48/48 47/47/47
f  51/51/51 50/50/50 47/47/47
f  52/52/52 50/50/50 51/51/51
f  53/53/53 52/52/52 51/51/51
f  54/54/54 52/52/52 53/53/53
f  55/55/55 54/54/54 53/53/53
f  56/56/56 54/54/54 55/55/55
f  57/57/57 56/56/56 55/55/55
f  58/58/58 56/56/56 57/57/57
f  59/59/59 58/58/58 57/57/57
f  60/60/60 58/58/58 59/59/59
f  61/61/61 60/60/60 59/59/59
f  62/62/62 60/60/60 61/61/61
f  63/63/63 62/62/62 61/61/61
f  64/64/64 62/62/62 63/63/63
f  65/65/65 64/64/64 63/63/63
f  66/66/66 64/64/64 65/65/65
f  67/67/67 66/66/66 65/65/65
f  68/68/68 66/66/66 67/67/67
f  69/69/69 68/68/68 67/67/67
f  70/70/70 68/68/68 69/69/69
f  71/71/71 70/70/70 69/69/69
f  72/72/72 70/70/70 71/71/71
f  73/73/73 74/74/74 75/75/75
f  75/75/75 74/74/74 76/76/76
f  75/75/75 76/76/76 77/77/77
f  77/77/77 76/76/76 78/78/78
f  77/77/77 78/78/78 79/79/79
f  79/79/79 78/78/78 80/80/80
f  79/79/79 80/80/80 81/81/81
f  81/81/81 80/80/80 82/82/82
f  81/81/81 82/82/82 83/83/83
f  83/83/83 82/82/82 84/84/84
f  85/85/85 86/86/86 87/87/87
f  87/87/87 86/86/86 88/88/88
f  89/89/89 87/87/87 88/88/88
f  90/90/90 87/87/87 89/89/89
f  88/88/88 86/86/86 91/91/91
f  88/88/88 91/91/91 89/89/89
f  91/91/91 86/86/86 92/92/92
f  93/93/93 90/90/90 89/89/89
f  94/94/94 90/90/90 93/93/93
f  89/89/89 91/91/91 95/95/95
f  89/89/89 95/95/95 93/93/93
f  92/92/92 96/96/96 91/91/91
f  96/96/96 95/95/95 91/91/91
f  97/97/97 96/96/96 92/92/92
f  98/98/98 96/96/96 97/97/97
f  99/99/99 96/96/96 98/98/98
f  99/99/99 100/100/100 96/96/96
f  101/101/101 94/94/94 93/93/93
f  102/102/102 94/94/94 101/101/101
f  102/102/102 101/101/101 103/103/103
f  103/103/103 101/101/101 104/104/104
f  96/96/96 100/100/100 105/105/105
f  105/105/105 95/95/95 96/96/96
f  100/100/100 106/106/106 105/105/105
f  93/93/93 95/95/95 107/107/107
f  105/105/105 107/107/107 95/95/95
f  93/93/93 107/107/107 101/101/101
f  105/105/105 106/106/106 108/108/108
f  108/108/108 107/107/107 105/105/105
f  106/106/106 109/109/109 108/108/108
f  101/101/101 107/107/107 110/110/110
f  101/101/101 110/110/110 104/104/104
f  108/108/108 110/110/110 107/107/107
f  104/104/104 110/110/110 111/111/111
f  110/110/110 112/112/112 111/111/111
f  108/108/108 109/109/109 113/113/113
f  113/113/113 110/110/110 108/108/108
f  113/113/113 112/112/112 110/110/110
f  109/109/109 114/114/114 113/113/113
f  113/113/113 114/114/114 112/112/112
f  115/115/115 116/116/116 117/117/117
f  117/117/117 116/116/116 118/118/118
f  119/119/119 116/116/116 115/115/115
f  118/118/118 116/116/116 120/120/120
f  121/121/121 116/116/116 119/119/119
f  120/120/120 116/116/116 122/122/122
f  121/121/121 123/123/123 116/116/116
f  122/122/122 116/116/116 124/124/124
f  116/116/116 123/123/123 125/125/125
f  124/124/124 116/116/116 126/126/126
f  127/127/127 116/116/116 125/125/125
f  126/126/126 116/116/116 127/127/127
f  128/128/128 129/129/129 130/130/130
f  130/130/130 129/129/129 131/131/131
f  130/130/130 132/132/132 128/128/128
f  131/131/131 133/133/133 130/130/130
f  134/134/134 132/132/132 130/130/130
f  130/130/130 133/133/133 135/135/135
f  134/134/134 130/130/130 136/136/136
f  135/135/135 137/137/137 130/130/130
f  136/136/136 130/130/130 138/138/138
f  130/130/130 137/137/137 139/139/139
f  130/130/130 140/140/140 138/138/138
f  139/139/139 140/140/140 130/130/130

g
