# Noesis .obj export.
#
mtllib unused.mtl
g
v  0.351979 -0.901638 0.054706
v  0.119880 -1.030619 -0.013874
v  0.408366 -0.838858 -0.347774
v  0.176244 -0.946073 -0.396499
v  -0.230757 -0.901974 -0.002403
v  0.215374 -0.738792 -0.737537
v  0.447517 -0.653342 -0.708667
v  -0.105639 -0.649727 -0.625995
v  0.241311 -0.371777 -0.947163
v  0.460462 -0.328687 -0.923558
v  -0.854942 -0.538818 -0.551112
v  -0.979463 -0.735802 -0.017930
v  0.245543 0.033136 -1.007205
v  0.451702 0.033866 -0.988865
v  0.445209 0.449758 -0.883429
v  -0.105395 0.031034 -0.860908
v  0.229545 0.479587 -0.913780
v  0.412029 0.851690 -0.648005
v  -1.752533 -0.420331 -0.443404
v  -1.770675 -0.585988 -0.009391
v  0.182822 0.912077 -0.690368
v  0.385220 1.014083 -0.318419
v  -0.854754 0.064979 -0.766065
v  -0.135759 0.752544 -0.607279
v  0.143433 1.061551 -0.362349
v  0.342030 1.096378 0.027004
v  -2.250749 -0.383860 -0.418452
v  -2.246933 -0.532383 -0.012172
v  -2.489819 -0.404215 -0.013656
v  -1.752390 0.097144 -0.567952
v  -0.891496 0.607718 -0.541387
v  -0.252750 0.975465 -0.018737
v  0.083623 1.130930 -0.018492
v  0.050760 1.055219 0.428434
v  -2.512460 -0.065766 -0.532747
v  0.311151 1.031199 0.454687
v  -2.799687 -0.058215 -0.415279
v  -2.861338 -0.271158 -0.026003
v  -2.919264 0.039893 -0.033612
v  -2.862309 0.303496 -0.380966
v  -2.250905 0.102556 -0.554996
v  -2.613081 0.440568 -0.456491
v  -2.251476 0.451908 -0.453058
v  -1.752511 0.516023 -0.470501
v  -2.626553 0.552879 -0.029658
v  -0.979453 0.850823 -0.045317
v  -2.250314 0.614494 -0.031969
v  -1.770667 0.729532 -0.032874
v  -0.979622 0.635381 0.481368
v  -2.878276 0.400578 -0.026721
v  -2.919264 0.039893 -0.033612
v  -2.856458 0.276537 0.224242
v  -2.813179 0.035058 0.364032
v  -2.603536 0.452791 0.373682
v  -1.770797 0.536558 0.410950
v  -2.249679 0.472842 0.401501
v  -2.473732 0.125222 0.579830
v  -0.276588 0.716592 0.687538
v  -0.979473 0.089139 0.633637
v  -1.770684 0.116172 0.534232
v  -2.246193 0.121771 0.558153
v  -2.463735 -0.311072 0.341791
v  -2.239656 -0.410820 0.392698
v  0.010619 0.847689 0.844138
v  -1.770811 -0.528084 0.414237
v  -2.246933 -0.532383 -0.012172
v  -2.489819 -0.404215 -0.013656
v  -1.770675 -0.585988 -0.009391
v  -0.979463 -0.735802 -0.017930
v  -2.767168 -0.242461 0.258803
v  -2.861338 -0.271158 -0.026003
v  -2.919264 0.039893 -0.033612
v  -0.979641 -0.553042 0.483308
v  -0.230757 -0.901974 -0.002403
v  -0.276615 -0.664705 0.710407
v  -0.276399 0.062010 0.933628
v  0.036252 0.467855 1.055578
v  0.272995 0.834199 0.851148
v  0.070673 -0.976371 0.416574
v  0.119880 -1.030619 -0.013874
v  0.351979 -0.901638 0.054706
v  0.302794 -0.865985 0.457374
v  0.289127 0.461312 1.058884
v  0.277033 0.054991 1.147610
v  0.039876 -0.761477 0.838490
v  0.272018 -0.715071 0.813066
v  0.033659 0.054585 1.148008
v  0.272459 -0.345989 1.085209
v  0.034701 -0.392087 1.078898
v  -0.068993 0.042603 0.004276
v  0.289127 0.461312 1.058884
v  0.385220 1.014083 -0.318419
v  0.277033 0.054991 1.147610
v  0.412029 0.851690 -0.648005
v  0.272459 -0.345989 1.085209
v  0.445209 0.449758 -0.883429
v  0.272018 -0.715071 0.813066
v  0.451702 0.033866 -0.988865
v  0.302794 -0.865985 0.457374
v  0.460462 -0.328687 -0.923558
v  0.351979 -0.901638 0.054706
v  0.447517 -0.653342 -0.708667
v  0.408366 -0.838858 -0.347774

vt  0.354657 0.279415 0.000000
vt  0.352814 0.262368 0.000000
vt  0.322006 0.284308 0.000000
vt  0.322215 0.268433 0.000000
vt  0.348425 0.242060 0.000000
vt  0.298738 0.273403 0.000000
vt  0.296476 0.288106 0.000000
vt  0.299397 0.252088 0.000000
vt  0.274631 0.272115 0.000000
vt  0.272518 0.285773 0.000000
vt  0.299956 0.204917 0.000000
vt  0.342778 0.197701 0.000000
vt  0.250524 0.270828 0.000000
vt  0.248560 0.283440 0.000000
vt  0.220418 0.275070 0.000000
vt  0.253455 0.247136 0.000000
vt  0.223388 0.261897 0.000000
vt  0.192276 0.266701 0.000000
vt  0.302650 0.148819 0.000000
vt  0.339682 0.145739 0.000000
vt  0.196252 0.252966 0.000000
vt  0.173111 0.256659 0.000000
vt  0.259596 0.200773 0.000000
vt  0.205829 0.233590 0.000000
vt  0.178794 0.241786 0.000000
vt  0.153946 0.246617 0.000000
vt  0.304198 0.118734 0.000000
vt  0.341892 0.111170 0.000000
vt  0.333300 0.091677 0.000000
vt  0.268341 0.144862 0.000000
vt  0.223759 0.192259 0.000000
vt  0.170289 0.211338 0.000000
vt  0.161335 0.230606 0.000000
vt  0.138187 0.217124 0.000000
vt  0.286026 0.100897 0.000000
vt  0.128551 0.231480 0.000000
vt  0.286657 0.083158 0.000000
vt  0.323642 0.069606 0.000000
vt  0.294605 0.060330 0.000000
vt  0.265814 0.071166 0.000000
vt  0.273592 0.114942 0.000000
vt  0.258619 0.089083 0.000000
vt  0.252200 0.110404 0.000000
vt  0.241174 0.139259 0.000000
vt  0.235960 0.081026 0.000000
vt  0.190842 0.170998 0.000000
vt  0.226446 0.101461 0.000000
vt  0.212779 0.127607 0.000000
vt  0.158323 0.151392 0.000000
vt  0.242433 0.065747 0.000000
vt  0.246305 0.044589 0.000000
vt  0.226632 0.056005 0.000000
vt  0.215554 0.041909 0.000000
vt  0.214035 0.070316 0.000000
vt  0.187267 0.111442 0.000000
vt  0.203369 0.087406 0.000000
vt  0.200016 0.059703 0.000000
vt  0.128447 0.186276 0.000000
vt  0.130258 0.125378 0.000000
vt  0.167217 0.091812 0.000000
vt  0.188046 0.071870 0.000000
vt  0.181948 0.040431 0.000000
vt  0.167332 0.046316 0.000000
vt  0.115040 0.203641 0.000000
vt  0.141017 0.059999 0.000000
vt  0.154656 0.017465 0.000000
vt  0.176992 0.015246 0.000000
vt  0.125842 0.032224 0.000000
vt  0.082071 0.054365 0.000000
vt  0.199584 0.032325 0.000000
vt  0.199458 0.015646 0.000000
vt  0.220667 0.017085 0.000000
vt  0.102824 0.091428 0.000000
vt  0.040714 0.068099 0.000000
vt  0.064665 0.118640 0.000000
vt  0.094393 0.156826 0.000000
vt  0.095967 0.187697 0.000000
vt  0.103157 0.216344 0.000000
vt  0.034873 0.105023 0.000000
vt  0.022372 0.072788 0.000000
vt  0.009622 0.084354 0.000000
vt  0.023173 0.115826 0.000000
vt  0.084433 0.199142 0.000000
vt  0.065709 0.181941 0.000000
vt  0.046277 0.130137 0.000000
vt  0.035628 0.140176 0.000000
vt  0.076894 0.171753 0.000000
vt  0.050669 0.161058 0.000000
vt  0.061586 0.150945 0.000000
vt  0.093062 0.297161 0.000000
vt  0.072618 0.225594 0.000000
vt  0.164043 0.274114 0.000000
vt  0.042079 0.234843 0.000000
vt  0.174139 0.301612 0.000000
vt  0.028037 0.261236 0.000000
vt  0.159414 0.331588 0.000000
vt  0.013994 0.287629 0.000000
vt  0.144690 0.361564 0.000000
vt  0.026193 0.316893 0.000000
vt  0.117463 0.369947 0.000000
vt  0.038393 0.346157 0.000000
vt  0.090236 0.378331 0.000000
vt  0.064314 0.362244 0.000000

vn  0.499293 -0.864005 -0.064821
vn  0.216141 -0.962847 -0.161891
vn  0.443825 -0.858166 -0.258014
vn  -0.071809 -0.919845 -0.385653
vn  -0.300366 -0.881701 -0.363845
vn  0.068208 -0.744354 -0.664292
vn  0.289618 -0.650188 -0.702409
vn  -0.375873 -0.619295 -0.689342
vn  -0.124128 -0.363550 -0.923268
vn  0.142122 -0.295499 -0.944712
vn  -0.174742 -0.673111 -0.718601
vn  -0.178651 -0.911360 -0.370820
vn  -0.050434 0.030961 -0.998247
vn  0.088419 0.036602 -0.995411
vn  0.147718 0.324338 -0.934336
vn  -0.324882 -0.044073 -0.944727
vn  -0.115531 0.357603 -0.926700
vn  0.266633 0.637489 -0.722852
vn  -0.161397 -0.660661 -0.733129
vn  -0.122327 -0.927800 -0.352454
vn  -0.017204 0.763025 -0.646140
vn  0.257878 0.908824 -0.327929
vn  -0.167597 0.029679 -0.985409
vn  -0.364298 0.584635 -0.724906
vn  -0.139057 0.936792 -0.321067
vn  0.603568 0.796131 0.043370
vn  -0.207040 -0.678882 -0.704452
vn  -0.277544 -0.903148 -0.327556
vn  -0.404094 -0.801984 -0.439920
vn  -0.102110 0.054051 -0.993303
vn  -0.165060 0.653832 -0.738416
vn  -0.354280 0.933663 -0.052532
vn  -0.148948 0.988324 -0.032097
vn  -0.234169 0.935619 0.264163
vn  -0.312398 -0.293081 -0.903610
vn  0.659262 0.678720 0.323594
vn  -0.666012 -0.462689 -0.585104
vn  -0.700418 -0.573617 -0.424710
vn  -0.952794 -0.161772 -0.256929
vn  -0.755093 0.353488 -0.552160
vn  -0.024063 0.028412 -0.999307
vn  -0.247198 0.539759 -0.804707
vn  -0.075012 0.680160 -0.729216
vn  -0.143132 0.734785 -0.663026
vn  -0.379975 0.924469 -0.031236
vn  -0.155955 0.978993 -0.131344
vn  -0.163869 0.986351 0.016106
vn  -0.186127 0.980554 0.062218
vn  -0.196630 0.765204 0.613025
vn  -0.847570 0.526215 0.068722
vn  -0.991850 0.067146 0.108282
vn  -0.818952 0.421291 0.389657
vn  -0.717252 -0.100671 0.689503
vn  -0.408104 0.697803 0.588661
vn  -0.144518 0.662768 0.734747
vn  -0.039658 0.633305 0.772885
vn  -0.204687 0.058176 0.977097
vn  -0.496703 0.574559 0.650514
vn  -0.237997 0.030819 0.970777
vn  -0.050568 0.053627 0.997280
vn  -0.014608 -0.053069 0.998484
vn  -0.337646 -0.665040 0.666121
vn  -0.243677 -0.583411 0.774760
vn  -0.226406 0.749224 0.622418
vn  -0.154094 -0.747512 0.646128
vn  -0.316893 -0.918087 0.238107
vn  -0.357522 -0.902026 0.241922
vn  -0.147400 -0.979971 0.133902
vn  -0.152159 -0.950226 0.271878
vn  -0.653277 -0.614042 0.442924
vn  -0.724190 -0.619993 0.301922
vn  -0.935434 -0.207517 0.286180
vn  -0.211986 -0.731295 0.648282
vn  -0.335498 -0.911194 0.239095
vn  -0.471604 -0.589529 0.655778
vn  -0.548066 0.028748 0.835941
vn  -0.266709 0.337573 0.902724
vn  0.638425 0.470571 0.609078
vn  -0.021013 -0.963183 0.268026
vn  0.055145 -0.989841 0.131050
vn  0.424918 -0.893411 0.145813
vn  0.319868 -0.888327 0.329483
vn  -0.003068 0.353923 0.935270
vn  -0.001400 0.094110 0.995561
vn  -0.027523 -0.786534 0.616933
vn  0.176423 -0.694828 0.697201
vn  -0.236790 -0.006582 0.971539
vn  0.033756 -0.307330 0.951004
vn  -0.251136 -0.384312 0.888389
vn  0.994505 0.013463 0.103823
vn  0.953592 -0.102566 -0.283095
vn  0.909548 -0.351712 0.221405
vn  0.956822 -0.028544 -0.289270
vn  0.903056 -0.263306 0.339351
vn  0.958507 0.104871 -0.265078
vn  0.883371 -0.141399 0.446836
vn  0.952133 0.263959 -0.154172
vn  0.885658 0.000416 0.464338
vn  0.924837 0.380344 0.003828
vn  0.883643 0.170342 0.436072
vn  0.902703 0.409505 0.132033
vn  0.887466 0.302096 0.348054
vn  0.890783 0.387783 0.236918

g "mesh0"
usemtl 
f  1/1/1 2/2/2 3/3/3
f  3/3/3 2/2/2 4/4/4
f  5/5/5 4/4/4 2/2/2
f  4/4/4 6/6/6 3/3/3
f  3/3/3 6/6/6 7/7/7
f  5/5/5 8/8/8 4/4/4
f  4/4/4 8/8/8 6/6/6
f  6/6/6 9/9/9 7/7/7
f  8/8/8 9/9/9 6/6/6
f  7/7/7 9/9/9 10/10/10
f  8/8/8 5/5/5 11/11/11
f  11/11/11 5/5/5 12/12/12
f  9/9/9 13/13/13 10/10/10
f  10/10/10 13/13/13 14/14/14
f  14/14/14 13/13/13 15/15/15
f  8/8/8 16/16/16 9/9/9
f  9/9/9 16/16/16 13/13/13
f  11/11/11 16/16/16 8/8/8
f  15/15/15 13/13/13 17/17/17
f  16/16/16 17/17/17 13/13/13
f  15/15/15 17/17/17 18/18/18
f  11/11/11 12/12/12 19/19/19
f  19/19/19 12/12/12 20/20/20
f  18/18/18 17/17/17 21/21/21
f  18/18/18 21/21/21 22/22/22
f  23/23/23 16/16/16 11/11/11
f  19/19/19 23/23/23 11/11/11
f  16/16/16 24/24/24 17/17/17
f  17/17/17 24/24/24 21/21/21
f  23/23/23 24/24/24 16/16/16
f  22/22/22 21/21/21 25/25/25
f  24/24/24 25/25/25 21/21/21
f  22/22/22 25/25/25 26/26/26
f  19/19/19 20/20/20 27/27/27
f  27/27/27 20/20/20 28/28/28
f  28/28/28 29/29/29 27/27/27
f  30/30/30 23/23/23 19/19/19
f  19/19/19 27/27/27 30/30/30
f  31/31/31 24/24/24 23/23/23
f  30/30/30 31/31/31 23/23/23
f  24/24/24 32/32/32 25/25/25
f  31/31/31 32/32/32 24/24/24
f  26/26/26 25/25/25 33/33/33
f  25/25/25 32/32/32 33/33/33
f  33/33/33 34/34/34 26/26/26
f  32/32/32 34/34/34 33/33/33
f  27/27/27 29/29/29 35/35/35
f  26/26/26 34/34/34 36/36/36
f  35/35/35 29/29/29 37/37/37
f  37/37/37 29/29/29 38/38/38
f  37/37/37 38/38/38 39/39/39
f  40/40/40 37/37/37 39/39/39
f  40/40/40 35/35/35 37/37/37
f  35/35/35 41/41/41 27/27/27
f  30/30/30 27/27/27 41/41/41
f  42/42/42 35/35/35 40/40/40
f  42/42/42 41/41/41 35/35/35
f  43/43/43 30/30/30 41/41/41
f  43/43/43 41/41/41 42/42/42
f  44/44/44 31/31/31 30/30/30
f  44/44/44 30/30/30 43/43/43
f  42/42/42 40/40/40 45/45/45
f  42/42/42 45/45/45 43/43/43
f  44/44/44 46/46/46 31/31/31
f  46/46/46 32/32/32 31/31/31
f  47/47/47 44/44/44 43/43/43
f  43/43/43 45/45/45 47/47/47
f  48/48/48 46/46/46 44/44/44
f  48/48/48 44/44/44 47/47/47
f  49/49/49 32/32/32 46/46/46
f  48/48/48 49/49/49 46/46/46
f  45/45/45 40/40/40 50/50/50
f  50/50/50 40/40/40 51/51/51
f  52/52/52 50/50/50 51/51/51
f  52/52/52 45/45/45 50/50/50
f  53/53/53 52/52/52 51/51/51
f  54/54/54 45/45/45 52/52/52
f  54/54/54 47/47/47 45/45/45
f  53/53/53 54/54/54 52/52/52
f  48/48/48 47/47/47 55/55/55
f  55/55/55 49/49/49 48/48/48
f  56/56/56 47/47/47 54/54/54
f  55/55/55 47/47/47 56/56/56
f  57/57/57 54/54/54 53/53/53
f  57/57/57 56/56/56 54/54/54
f  58/58/58 32/32/32 49/49/49
f  32/32/32 58/58/58 34/34/34
f  55/55/55 59/59/59 49/49/49
f  59/59/59 58/58/58 49/49/49
f  55/55/55 56/56/56 60/60/60
f  60/60/60 59/59/59 55/55/55
f  61/61/61 56/56/56 57/57/57
f  60/60/60 56/56/56 61/61/61
f  57/57/57 53/53/53 62/62/62
f  62/62/62 61/61/61 57/57/57
f  63/63/63 60/60/60 61/61/61
f  63/63/63 61/61/61 62/62/62
f  34/34/34 58/58/58 64/64/64
f  34/34/34 64/64/64 36/36/36
f  65/65/65 60/60/60 63/63/63
f  65/65/65 59/59/59 60/60/60
f  62/62/62 66/66/66 63/63/63
f  66/66/66 65/65/65 63/63/63
f  67/67/67 66/66/66 62/62/62
f  68/68/68 65/65/65 66/66/66
f  68/68/68 69/69/69 65/65/65
f  62/62/62 70/70/70 67/67/67
f  62/62/62 53/53/53 70/70/70
f  67/67/67 70/70/70 71/71/71
f  70/70/70 53/53/53 72/72/72
f  71/71/71 70/70/70 72/72/72
f  65/65/65 69/69/69 73/73/73
f  73/73/73 59/59/59 65/65/65
f  69/69/69 74/74/74 73/73/73
f  73/73/73 75/75/75 59/59/59
f  73/73/73 74/74/74 75/75/75
f  76/76/76 58/58/58 59/59/59
f  59/59/59 75/75/75 76/76/76
f  58/58/58 77/77/77 64/64/64
f  76/76/76 77/77/77 58/58/58
f  36/36/36 64/64/64 78/78/78
f  64/64/64 77/77/77 78/78/78
f  75/75/75 74/74/74 79/79/79
f  79/79/79 74/74/74 80/80/80
f  81/81/81 79/79/79 80/80/80
f  82/82/82 79/79/79 81/81/81
f  78/78/78 77/77/77 83/83/83
f  83/83/83 77/77/77 84/84/84
f  82/82/82 85/85/85 79/79/79
f  75/75/75 79/79/79 85/85/85
f  86/86/86 85/85/85 82/82/82
f  84/84/84 77/77/77 87/87/87
f  76/76/76 87/87/87 77/77/77
f  84/84/84 87/87/87 88/88/88
f  76/76/76 75/75/75 89/89/89
f  76/76/76 89/89/89 87/87/87
f  89/89/89 75/75/75 85/85/85
f  88/88/88 87/87/87 89/89/89
f  86/86/86 89/89/89 85/85/85
f  88/88/88 89/89/89 86/86/86
f  78/78/78 90/90/90 36/36/36
f  90/90/90 26/26/26 36/36/36
f  78/78/78 91/91/91 90/90/90
f  90/90/90 92/92/92 26/26/26
f  90/90/90 91/91/91 93/93/93
f  94/94/94 92/92/92 90/90/90
f  93/93/93 95/95/95 90/90/90
f  94/94/94 90/90/90 96/96/96
f  97/97/97 90/90/90 95/95/95
f  90/90/90 98/98/98 96/96/96
f  97/97/97 99/99/99 90/90/90
f  90/90/90 100/100/100 98/98/98
f  99/99/99 101/101/101 90/90/90
f  102/102/102 100/100/100 90/90/90
f  90/90/90 101/101/101 103/103/103
f  102/102/102 90/90/90 103/103/103

g
